<svg width="279" height="40" viewBox="0 0 279 40" fill="none" xmlns="http://www.w3.org/2000/svg">
<path d="M101.07 13.1281C101.07 5.66137 98.4552 2.66648 91.5367 2.66648H71.4247V31.1384H78.8661V9.27164H90.0484C92.9847 9.27164 93.4272 10.1742 93.4272 13.1281C93.4272 16.7794 92.9847 17.2306 90.0484 17.2306H81.7282L84.2624 23.8358H91.5367C99.3401 23.8358 101.07 21.1281 101.07 13.1281Z" fill="#15162D"/>
<path d="M110.133 31.1384V2.66648H103.737V31.1384H110.133Z" fill="#15162D"/>
<path d="M160.105 19.6922V13.7024C160.105 5.62034 156.646 2.66648 148.882 2.66648H128.247V31.1384H135.689V9.27164H148.681C151.296 9.27164 152.422 10.0511 152.422 13.7024V19.6922C152.422 22.6871 151.416 24.5333 148.681 24.5333H138.551L141.085 31.1384H149.888C157.651 31.1384 160.105 27.4461 160.105 19.6922Z" fill="#15162D"/>
<path d="M170.016 7.67163V2.66648H163.62V7.67163H170.016ZM170.016 31.1384V11.1999H163.62V31.1384H170.016Z" fill="#15162D"/>
<path d="M200.718 30.2769V11.1999H194.322V26.1333H182.979C180.244 26.1333 179.681 25.3948 179.681 21.2922C179.681 16.6973 180.002 16.205 182.979 16.205H191.46L189.288 11.1999H180.807C174.13 11.1999 173.285 14.8101 173.285 21.2922C173.285 26.9127 173.929 31.1384 180.807 31.1384H194.322V32C194.322 34.7897 193.719 35.241 190.984 35.241H174.291C174.974 39.4256 177.307 40 183.22 40H191.185C198.747 40 200.718 37.7026 200.718 30.2769Z" fill="#15162D"/>
<path d="M210.75 7.67163V2.66648H204.355V7.67163H210.75ZM210.75 31.1384V11.1999H204.355V31.1384H210.75Z" fill="#15162D"/>
<path d="M238.275 25.4358H223.07C221.904 25.4358 221.622 24.9435 221.622 23.7538V16.9024H236.02L238.043 11.1999H221.622V7.01522H215.226V11.1999H212.853V16.9024H215.226V25.5999C215.226 30.6051 218.645 31.1384 222.708 31.1384H231.155C235.781 31.1384 237.832 29.2923 238.275 25.4358Z" fill="#15162D"/>
<path d="M267.303 31.1384V11.1999H247.633C242.887 11.1999 240.232 13.9486 240.232 19.1999V21.9486C240.232 28.0204 242.243 31.1384 247.633 31.1384H256.155L258.045 25.4358H250.127C247.513 25.4358 246.628 25.4768 246.628 21.1691C246.628 17.4768 246.749 16.9024 250.127 16.9024H260.907V31.1384H267.303Z" fill="#15162D"/>
<path d="M278.07 31.1384V0H271.674V31.1384H278.07Z" fill="#15162D"/>
<path d="M50.5963 2.6665L58.3063 16.7964L50.5963 30.9263H42.1554L42.1859 30.8704L33.7243 30.8086L37.9448 23.2026L46.3364 23.2637L49.8653 16.7964L46.3132 10.2864L4.22049 10.3902L0 2.6665H50.5963Z" fill="#4FA0FF"/>
<path d="M16.1509 16.7964H7.70992L0 30.9263H8.44094L16.1509 16.7964Z" fill="#4FA0FF"/>
<path d="M24.5721 16.7964H33.013L25.3031 30.9263H16.8622L24.5721 16.7964Z" fill="#4FA0FF"/>
</svg>
